<?xml version="1.0"?>
<svg xmlns="http://www.w3.org/2000/svg" xmlns:xlink="http://www.w3.org/1999/xlink" version="1.1" id="Capa_1" x="0px" y="0px" viewBox="0 0 476.044 476.044" style="enable-background:new 0 0 476.044 476.044;" xml:space="preserve" width="512px" height="512px"><g><g>
	<g>
		<polygon points="315.36,160.422 315.36,96.422 283.36,96.422 283.36,160.422 219.36,160.422 219.36,192.422 283.36,192.422     283.36,256.422 315.36,256.422 315.36,192.422 379.36,192.422 379.36,160.422   " data-original="#000000" class="active-path" fill="#000000"/>
	</g>
</g><g>
	<g>
		<path d="M412.718,41.22C380.908,14.709,340.769,0.263,299.36,0.422c-97.202,0.311-175.747,79.361-175.435,176.563    c0.13,40.679,14.348,80.057,40.235,111.437L0,453.062l22.56,22.56l164.8-164c74.67,62.231,185.65,52.148,247.881-22.522    S487.388,103.451,412.718,41.22z M299.36,327.142c-83.24,0-150.72-67.48-150.72-150.72s67.48-150.72,150.72-150.72    s150.72,67.48,150.72,150.72C449.992,259.626,382.564,327.054,299.36,327.142z" data-original="#000000" class="active-path" fill="#000000"/>
	</g>
</g></g> </svg>
